# xmcd
#
# Track frame offsets:
#	150
#	15419
#	31141
#	46265
#	57847
#	71792
#	87343
#	100353
#	114318
#	124229
#	138561
#	153068
#
# Disc length: 2214 seconds
#
# Revision: 0
# Processed by: cddbd v1.5.2PL0 Copyright (c) Steve Scherf et al.
# Submitted via: EasyCDDAExtractor 8.2.1.1
#
DISCID=9708a40c
DTITLE=Ron Gaddis - Chip Off The Old Block
DYEAR=1998
DGENRE=Country
TTITLE0=If The Red Leaves The Roses
TTITLE1=Lefty's Gone
TTITLE2=After All
TTITLE3=I Fell Off The Wagon (With George Jones)
TTITLE4=Today, Is That One Of These Days
TTITLE5=Holding My Own
TTITLE6=That's Why I Cry
TTITLE7=When The Shiny Silve Eagle Meets The Great Speckled Bird (With Porter 
TTITLE7=Wagoner)
TTITLE8=Chip Off The Old Block
TTITLE9=All Day All Night Thing (With Lorie Morgan)
TTITLE10=Home Is Where The Hurt Is
TTITLE11=Back In The Swing Of Things (With Leon Rausch)
EXTD=
EXTT0=
EXTT1=
EXTT2=
EXTT3=
EXTT4=
EXTT5=
EXTT6=
EXTT7=
EXTT8=
EXTT9=
EXTT10=
EXTT11=
PLAYORDER=
